<svg width="95" height="46" viewBox="0 0 95 46" fill="none" xmlns="http://www.w3.org/2000/svg">
<path d="M31.4148 11V39H24.2948V23.92L17.4948 35.16H16.7748L10.0148 23.96V39H2.85479V11H10.0148L17.1348 22.96L24.2948 11H31.4148ZM55.0626 11V17.92H48.1426V39H40.9826V17.92H34.0626V11H55.0626ZM75.3395 24.52C77.6861 25.9067 78.8595 28 78.8595 30.8C78.8595 33.28 78.0061 35.2667 76.2995 36.76C74.5928 38.2533 72.3128 39 69.4595 39H57.6595V11H68.6995C71.4995 11 73.7395 11.72 75.4195 13.16C77.0995 14.5733 77.9395 16.5067 77.9395 18.96C77.9395 21.3067 77.0728 23.16 75.3395 24.52ZM68.4995 17.4H64.8195V21.8H68.4995C69.1395 21.8 69.6728 21.6133 70.0995 21.24C70.5528 20.84 70.7795 20.2933 70.7795 19.6C70.7795 18.9333 70.5661 18.4 70.1395 18C69.7128 17.6 69.1661 17.4 68.4995 17.4ZM69.2595 32.6C69.9795 32.6 70.5661 32.3867 71.0195 31.96C71.4728 31.5067 71.6995 30.9333 71.6995 30.24C71.6995 29.52 71.4728 28.9467 71.0195 28.52C70.5661 28.0933 69.9795 27.88 69.2595 27.88H64.8195V32.6H69.2595Z" fill="white"/>
<path d="M81.5303 31.1314L85.2918 33.4652L88.7841 30.8995L87.6165 34.9075L91.378 37.2413L86.8949 37.3846L85.7273 41.3927L84.1242 37.4732L79.6412 37.6165L83.1334 35.0508L81.5303 31.1314Z" fill="white"/>
<ellipse cx="0.852008" cy="0.851629" rx="0.852008" ry="0.851629" transform="matrix(0.805946 -0.592106 0.651159 0.759035 84.1709 35.5144)" fill="#141617"/>
</svg>
